<svg xmlns="http://www.w3.org/2000/svg" xmlns:xlink="http://www.w3.org/1999/xlink" width="500" zoomAndPan="magnify" viewBox="0 0 375 374.999991" height="500" preserveAspectRatio="xMidYMid meet" version="1.0"><defs><g/><clipPath id="5ebf02768f"><path d="M 0 77.953125 L 62 77.953125 L 62 193 L 0 193 Z M 0 77.953125 " clip-rule="nonzero"/></clipPath><clipPath id="38d3c31272"><path d="M 313 182 L 374.789062 182 L 374.789062 296.773438 L 313 296.773438 Z M 313 182 " clip-rule="nonzero"/></clipPath></defs><rect x="-37.5" width="450" fill="#ffffff" y="-37.499999" height="449.999989" fill-opacity="1"/><rect x="-37.5" width="450" fill="#ffbd59" y="-37.499999" height="449.999989" fill-opacity="1"/><g clip-path="url(#5ebf02768f)"><path fill="#000000" d="M -48.675781 192.824219 L -53.410156 192.824219 L -53.410156 77.996094 L 61.421875 77.996094 L 61.421875 82.730469 L -48.675781 82.730469 Z M -48.675781 192.824219 " fill-opacity="1" fill-rule="nonzero"/></g><g clip-path="url(#38d3c31272)"><path fill="#000000" d="M 428.40625 297.003906 L 313.574219 297.003906 L 313.574219 292.269531 L 423.671875 292.269531 L 423.671875 182.171875 L 428.40625 182.171875 Z M 428.40625 297.003906 " fill-opacity="1" fill-rule="nonzero"/></g><g fill="#000000" fill-opacity="1"><g transform="translate(147.846918, 205.609215)"><g><path d="M 52.546875 -17.90625 C 55.566406 -17.90625 58.5 -18.359375 61.34375 -19.265625 C 64.1875 -20.179688 66.273438 -21.0625 67.609375 -21.90625 L 69.609375 -23.28125 L 78.03125 -6.421875 C 77.75 -6.210938 77.363281 -5.929688 76.875 -5.578125 C 76.382812 -5.234375 75.242188 -4.585938 73.453125 -3.640625 C 71.660156 -2.691406 69.742188 -1.863281 67.703125 -1.15625 C 65.671875 -0.457031 63.003906 0.171875 59.703125 0.734375 C 56.410156 1.296875 53.007812 1.578125 49.5 1.578125 C 41.425781 1.578125 33.769531 -0.40625 26.53125 -4.375 C 19.300781 -8.34375 13.472656 -13.800781 9.046875 -20.75 C 4.628906 -27.695312 2.421875 -35.207031 2.421875 -43.28125 C 2.421875 -49.394531 3.71875 -55.257812 6.3125 -60.875 C 8.914062 -66.488281 12.375 -71.296875 16.6875 -75.296875 C 21.007812 -79.296875 26.046875 -82.488281 31.796875 -84.875 C 37.554688 -87.269531 43.457031 -88.46875 49.5 -88.46875 C 55.113281 -88.46875 60.289062 -87.796875 65.03125 -86.453125 C 69.769531 -85.117188 73.125 -83.785156 75.09375 -82.453125 L 78.03125 -80.453125 L 69.609375 -63.609375 C 69.117188 -64.023438 68.378906 -64.53125 67.390625 -65.125 C 66.410156 -65.726562 64.445312 -66.519531 61.5 -67.5 C 58.550781 -68.488281 55.566406 -68.984375 52.546875 -68.984375 C 47.773438 -68.984375 43.492188 -68.207031 39.703125 -66.65625 C 35.910156 -65.113281 32.90625 -63.078125 30.6875 -60.546875 C 28.476562 -58.023438 26.796875 -55.304688 25.640625 -52.390625 C 24.484375 -49.472656 23.90625 -46.507812 23.90625 -43.5 C 23.90625 -36.894531 26.378906 -30.976562 31.328125 -25.75 C 36.273438 -20.519531 43.347656 -17.90625 52.546875 -17.90625 Z M 52.546875 -17.90625 "/></g></g></g></svg>