<svg xmlns="http://www.w3.org/2000/svg" xmlns:xlink="http://www.w3.org/1999/xlink" width="500" zoomAndPan="magnify" viewBox="0 0 375 374.999991" height="500" preserveAspectRatio="xMidYMid meet" version="1.0"><defs><g/><clipPath id="4018e2a5b5"><path d="M 32.046875 119.070312 L 104 119.070312 L 104 191 L 32.046875 191 Z M 32.046875 119.070312 " clip-rule="nonzero"/></clipPath><clipPath id="a6bbb0ed11"><path d="M 260 184 L 331.761719 184 L 331.761719 255.835938 L 260 255.835938 Z M 260 184 " clip-rule="nonzero"/></clipPath></defs><rect x="-37.5" width="450" fill="#ffffff" y="-37.499999" height="449.999989" fill-opacity="1"/><rect x="-37.5" width="450" fill="#ffbd59" y="-37.499999" height="449.999989" fill-opacity="1"/><g clip-path="url(#4018e2a5b5)"><path fill="#000000" d="M 34.519531 190.828125 L 31.5625 190.828125 L 31.5625 119.097656 L 103.289062 119.097656 L 103.289062 122.054688 L 34.519531 122.054688 Z M 34.519531 190.828125 " fill-opacity="1" fill-rule="nonzero"/></g><g clip-path="url(#a6bbb0ed11)"><path fill="#000000" d="M 332.523438 255.898438 L 260.796875 255.898438 L 260.796875 252.941406 L 329.566406 252.941406 L 329.566406 184.171875 L 332.523438 184.171875 Z M 332.523438 255.898438 " fill-opacity="1" fill-rule="nonzero"/></g><g fill="#000000" fill-opacity="1"><g transform="translate(82.478969, 189.641433)"><g><path d="M 26.453125 -4.8125 C 23.921875 -2.425781 20.910156 -1.234375 17.421875 -1.234375 C 15.484375 -1.234375 13.765625 -1.566406 12.265625 -2.234375 C 10.773438 -2.910156 9.53125 -3.804688 8.53125 -4.921875 C 7.539062 -6.046875 6.789062 -7.335938 6.28125 -8.796875 C 5.769531 -10.265625 5.515625 -11.796875 5.515625 -13.390625 C 5.515625 -15.085938 5.78125 -16.640625 6.3125 -18.046875 C 6.851562 -19.453125 7.609375 -20.660156 8.578125 -21.671875 C 9.546875 -22.691406 10.695312 -23.488281 12.03125 -24.0625 C 13.363281 -24.632812 14.8125 -24.921875 16.375 -24.921875 C 17.445312 -24.921875 18.425781 -24.796875 19.3125 -24.546875 C 20.195312 -24.296875 20.976562 -23.972656 21.65625 -23.578125 C 22.34375 -23.179688 22.898438 -22.726562 23.328125 -22.21875 C 23.765625 -21.707031 24.070312 -21.191406 24.25 -20.671875 L 27.015625 -20.671875 C 26.640625 -21.515625 26.160156 -22.296875 25.578125 -23.015625 C 24.992188 -23.742188 24.265625 -24.367188 23.390625 -24.890625 C 22.523438 -25.410156 21.503906 -25.816406 20.328125 -26.109375 C 19.160156 -26.410156 17.832031 -26.5625 16.34375 -26.5625 C 14.175781 -26.5625 12.203125 -26.25 10.421875 -25.625 C 8.648438 -25.007812 7.128906 -24.125 5.859375 -22.96875 C 4.585938 -21.8125 3.601562 -20.414062 2.90625 -18.78125 C 2.207031 -17.15625 1.859375 -15.335938 1.859375 -13.328125 C 1.859375 -11.578125 2.140625 -9.875 2.703125 -8.21875 C 3.265625 -6.570312 4.128906 -5.109375 5.296875 -3.828125 C 6.460938 -2.546875 7.953125 -1.507812 9.765625 -0.71875 C 11.585938 0.0625 13.753906 0.453125 16.265625 0.453125 C 17.859375 0.453125 19.28125 0.300781 20.53125 0 C 21.789062 -0.300781 22.882812 -0.664062 23.8125 -1.09375 C 24.75 -1.53125 25.53125 -2 26.15625 -2.5 C 26.78125 -3 27.253906 -3.4375 27.578125 -3.8125 Z M 26.453125 -4.8125 "/></g></g></g><g fill="#000000" fill-opacity="1"><g transform="translate(110.788258, 189.641433)"><g><path d="M 7.875 -12.984375 L 23.5 -12.984375 L 23.5 0 L 26.90625 0 L 26.90625 -26.125 L 23.5 -26.125 L 23.5 -14.703125 L 7.875 -14.703125 L 7.875 -26.125 L 4.484375 -26.125 L 4.484375 0 L 7.875 0 Z M 7.875 -12.984375 "/></g></g></g><g fill="#000000" fill-opacity="1"><g transform="translate(142.156009, 189.641433)"><g><path d="M 18.984375 -7.6875 L 22.578125 0 L 26.1875 0 L 14.03125 -26.125 L 12.15625 -26.125 L 1.125 0 L 2.828125 0 L 6.125 -7.6875 Z M 18.203125 -9.359375 L 6.828125 -9.359375 L 12.203125 -21.9375 L 12.34375 -21.9375 Z M 18.203125 -9.359375 "/></g></g></g><g fill="#000000" fill-opacity="1"><g transform="translate(169.458263, 189.641433)"><g><path d="M 5.96875 -26.125 L 5.96875 0 L 9.359375 0 L 9.359375 -26.125 Z M 5.96875 -26.125 "/></g></g></g><g fill="#000000" fill-opacity="1"><g transform="translate(184.787805, 189.641433)"><g><path d="M 4.484375 -26.125 L 4.484375 0 L 7.875 0 L 7.875 -11.53125 L 9.515625 -11.53125 C 10.210938 -11.53125 10.789062 -11.46875 11.25 -11.34375 C 11.707031 -11.21875 12.125 -11.003906 12.5 -10.703125 C 12.875 -10.410156 13.222656 -10.023438 13.546875 -9.546875 C 13.867188 -9.078125 14.253906 -8.492188 14.703125 -7.796875 L 17.65625 -3.4375 C 18.019531 -2.863281 18.382812 -2.335938 18.75 -1.859375 C 19.113281 -1.390625 19.503906 -0.988281 19.921875 -0.65625 C 20.347656 -0.320312 20.828125 -0.0546875 21.359375 0.140625 C 21.890625 0.347656 22.53125 0.453125 23.28125 0.453125 C 23.832031 0.453125 24.28125 0.425781 24.625 0.375 C 24.976562 0.320312 25.328125 0.195312 25.671875 0 L 25.671875 -1.375 C 25.546875 -1.351562 25.421875 -1.335938 25.296875 -1.328125 C 25.171875 -1.316406 25.046875 -1.3125 24.921875 -1.3125 C 24.398438 -1.3125 23.941406 -1.382812 23.546875 -1.53125 C 23.148438 -1.675781 22.773438 -1.890625 22.421875 -2.171875 C 22.078125 -2.460938 21.742188 -2.8125 21.421875 -3.21875 C 21.097656 -3.632812 20.757812 -4.101562 20.40625 -4.625 C 19.363281 -6.144531 18.554688 -7.359375 17.984375 -8.265625 C 17.410156 -9.171875 16.957031 -9.875 16.625 -10.375 C 16.289062 -10.875 16.015625 -11.234375 15.796875 -11.453125 C 15.585938 -11.679688 15.332031 -11.867188 15.03125 -12.015625 L 14.65625 -12.203125 L 14.65625 -12.34375 C 15.851562 -12.425781 16.878906 -12.691406 17.734375 -13.140625 C 18.597656 -13.585938 19.300781 -14.144531 19.84375 -14.8125 C 20.394531 -15.488281 20.796875 -16.21875 21.046875 -17 C 21.296875 -17.78125 21.421875 -18.546875 21.421875 -19.296875 C 21.421875 -19.960938 21.289062 -20.691406 21.03125 -21.484375 C 20.769531 -22.285156 20.320312 -23.023438 19.6875 -23.703125 C 19.050781 -24.390625 18.1875 -24.960938 17.09375 -25.421875 C 16 -25.890625 14.617188 -26.125 12.953125 -26.125 Z M 7.875 -24.484375 L 11.640625 -24.484375 C 12.585938 -24.484375 13.4375 -24.34375 14.1875 -24.0625 C 14.945312 -23.789062 15.601562 -23.410156 16.15625 -22.921875 C 16.707031 -22.441406 17.125 -21.863281 17.40625 -21.1875 C 17.6875 -20.519531 17.828125 -19.785156 17.828125 -18.984375 C 17.828125 -18.316406 17.695312 -17.640625 17.4375 -16.953125 C 17.175781 -16.273438 16.785156 -15.65625 16.265625 -15.09375 C 15.742188 -14.53125 15.101562 -14.070312 14.34375 -13.71875 C 13.582031 -13.375 12.707031 -13.203125 11.71875 -13.203125 L 7.875 -13.203125 Z M 7.875 -24.484375 "/></g></g></g><g fill="#000000" fill-opacity="1"><g transform="translate(211.567881, 189.641433)"><g><path d="M 5.96875 -26.125 L 5.96875 0 L 9.359375 0 L 9.359375 -26.125 Z M 5.96875 -26.125 "/></g></g></g><g fill="#000000" fill-opacity="1"><g transform="translate(226.897422, 189.641433)"><g><path d="M 1.375 -6.609375 C 1.425781 -5.535156 1.707031 -4.5625 2.21875 -3.6875 C 2.726562 -2.820312 3.425781 -2.082031 4.3125 -1.46875 C 5.195312 -0.863281 6.234375 -0.390625 7.421875 -0.046875 C 8.617188 0.285156 9.925781 0.453125 11.34375 0.453125 C 12.78125 0.453125 14.078125 0.28125 15.234375 -0.0625 C 16.398438 -0.414062 17.390625 -0.914062 18.203125 -1.5625 C 19.023438 -2.207031 19.660156 -2.988281 20.109375 -3.90625 C 20.554688 -4.832031 20.78125 -5.859375 20.78125 -6.984375 C 20.78125 -8.523438 20.394531 -9.785156 19.625 -10.765625 C 18.851562 -11.742188 17.890625 -12.5625 16.734375 -13.21875 C 15.578125 -13.882812 14.320312 -14.441406 12.96875 -14.890625 C 11.613281 -15.335938 10.359375 -15.804688 9.203125 -16.296875 C 8.046875 -16.796875 7.082031 -17.367188 6.3125 -18.015625 C 5.539062 -18.660156 5.15625 -19.519531 5.15625 -20.59375 C 5.15625 -21.1875 5.285156 -21.742188 5.546875 -22.265625 C 5.804688 -22.796875 6.191406 -23.253906 6.703125 -23.640625 C 7.210938 -24.023438 7.835938 -24.332031 8.578125 -24.5625 C 9.328125 -24.800781 10.1875 -24.921875 11.15625 -24.921875 C 12.769531 -24.921875 14.144531 -24.578125 15.28125 -23.890625 C 16.414062 -23.210938 17.082031 -22.140625 17.28125 -20.671875 L 19.8125 -20.671875 C 19.664062 -21.585938 19.328125 -22.410156 18.796875 -23.140625 C 18.273438 -23.878906 17.617188 -24.503906 16.828125 -25.015625 C 16.035156 -25.523438 15.132812 -25.910156 14.125 -26.171875 C 13.113281 -26.429688 12.0625 -26.5625 10.96875 -26.5625 C 9.820312 -26.5625 8.734375 -26.410156 7.703125 -26.109375 C 6.671875 -25.816406 5.765625 -25.382812 4.984375 -24.8125 C 4.203125 -24.238281 3.578125 -23.515625 3.109375 -22.640625 C 2.648438 -21.773438 2.421875 -20.78125 2.421875 -19.65625 C 2.421875 -18.195312 2.796875 -17.019531 3.546875 -16.125 C 4.296875 -15.226562 5.234375 -14.476562 6.359375 -13.875 C 7.492188 -13.28125 8.71875 -12.769531 10.03125 -12.34375 C 11.351562 -11.925781 12.578125 -11.445312 13.703125 -10.90625 C 14.835938 -10.375 15.78125 -9.722656 16.53125 -8.953125 C 17.28125 -8.179688 17.65625 -7.148438 17.65625 -5.859375 C 17.65625 -4.242188 17.0625 -3.0625 15.875 -2.3125 C 14.695312 -1.5625 13.125 -1.1875 11.15625 -1.1875 C 9.59375 -1.1875 8.335938 -1.390625 7.390625 -1.796875 C 6.441406 -2.210938 5.71875 -2.707031 5.21875 -3.28125 C 4.726562 -3.851562 4.394531 -4.441406 4.21875 -5.046875 C 4.039062 -5.660156 3.941406 -6.179688 3.921875 -6.609375 Z M 1.375 -6.609375 "/></g></g></g><g fill="#000000" fill-opacity="1"><g transform="translate(250.208773, 189.641433)"><g><path d="M 7.875 -12.984375 L 23.5 -12.984375 L 23.5 0 L 26.90625 0 L 26.90625 -26.125 L 23.5 -26.125 L 23.5 -14.703125 L 7.875 -14.703125 L 7.875 -26.125 L 4.484375 -26.125 L 4.484375 0 L 7.875 0 Z M 7.875 -12.984375 "/></g></g></g></svg>